<?xml version="1.0" encoding="utf-8"?>
<!-- Generator: Adobe Illustrator 20.0.0, SVG Export Plug-In . SVG Version: 6.00 Build 0)  -->
<svg version="1.1" id="BlingChat_Logo" xmlns="http://www.w3.org/2000/svg" xmlns:xlink="http://www.w3.org/1999/xlink" x="0px"
	 y="0px" viewBox="0 0 600 400" style="enable-background:new 0 0 600 400;" xml:space="preserve">
<style type="text/css">
	.st0{fill:#568980;}
	.st1{fill:#F68411;}
	.st2{fill:#CE6B11;}
	.st3{fill:#2A4664;}
</style>
<g>
	<g>
		<path class="st0" d="M170.5,187.8h8.8c3,0,5.1,0.5,6.6,1.6c2.7,1.5,3.6,4.3,3.6,6.9c0,3.9-2.2,5.9-4.4,7c6,1.8,6.4,6.9,6.4,8.4
			c0,3.6-1.7,6.3-4.5,7.8c-2,1.2-3.9,1.5-7.1,1.5h-9.2V187.8z M174.2,202.2h5c1.5,0,2.9-0.2,3.9-0.7c2.1-1.2,2.7-2.9,2.7-4.9
			c0-2.4-1.3-4.1-2.7-4.7c-0.9-0.4-2-0.7-4.1-0.8h-4.8V202.2z M174.2,217.8h6c1.3,0,2.8-0.1,4-0.6c2-0.9,3.5-2.6,3.5-5.5
			c0-2.7-1.4-4.7-3.5-5.6c-1.5-0.6-2.6-0.7-4.7-0.7h-5.3V217.8z"/>
		<path class="st0" d="M196.2,187.8h3.3V221h-3.3V187.8z"/>
		<path class="st0" d="M205.9,187.8h3.3v4.6h-3.3V187.8z M205.9,196.9h3.3V221h-3.3V196.9z"/>
		<path class="st0" d="M215.7,196.9h3.1c0,1.3,0,2.7,0,4.3c1.4-3.1,4.7-5.1,9-5c7.5,0.1,10.1,5.2,10.1,11.1V221h-3.3V208
			c0-5.2-2.3-8.8-7.8-8.7c-5,0-7.9,3.1-7.9,8.1V221h-3.3V196.9z"/>
		<path class="st0" d="M268.5,218.2c0,4.6-1.5,7.5-3.6,9.5c-2.4,2.3-5.9,3.7-9.2,3.7c-6,0-10.4-3.5-11.9-7.8h3.8
			c0.6,1,1.4,2.2,2.9,3.2c1.8,1.3,3.8,1.8,5.3,1.8c4.6,0,9.3-3.6,9.3-9.6v-3.1c-1.7,3.4-5.1,5.8-9.7,5.8c-7.5,0-12.6-5.7-12.6-12.7
			c0-7.2,5.3-12.8,12.6-12.8c4.8,0,8.4,2.7,9.8,5.7v-5h3.3V218.2z M246.2,209c0,4.9,3.5,9.7,9.7,9.7c2.7,0,5.1-1,6.8-2.8
			c1.7-1.7,2.6-4.2,2.7-6.8c0-2-0.7-4.4-2.2-6.3c-1.5-1.9-3.9-3.4-7.4-3.4C250.5,199.3,246.2,203.3,246.2,209L246.2,209z"/>
		<path class="st0" d="M355.7,212.1c-2.2,5.1-7.9,9.5-15.3,9.5c-9.8,0-17.3-7.6-17.3-17.2c0-9.5,7.3-17.2,17.3-17.2
			c8.2,0,13.4,5.5,15.3,9.7h-4c-1.1-2-4.9-6.4-11.3-6.4c-7.8,0-13.6,6.2-13.6,13.9c0,7.9,5.9,14,13.6,14c7,0,10.5-5,11.3-6.2H355.7z
			"/>
		<path class="st0" d="M360.5,187.8h3.3v8.8v4.2c1.5-3.2,5.2-4.7,8.6-4.6c3.8,0,6.3,1.2,8,3.3s2.3,5,2.3,8.5v13h-3.3v-12.9
			c0-2.6-0.5-4.8-1.8-6.4c-1.3-1.6-3.2-2.5-6.1-2.5c-2.6,0-4.6,0.9-5.9,2.4c-1.3,1.4-1.9,3.4-1.9,5.6V221h-3.3V187.8z"/>
		<path class="st0" d="M413.3,221H410v-5c-1.9,3.6-5.6,5.7-9.9,5.7c-7.9,0-12.5-6.1-12.5-12.8c0-7.1,5.2-12.8,12.5-12.8
			c5.2,0,8.7,3,9.9,5.7v-5.1h3.3V221z M390.9,209c0,4.4,3.1,9.6,9.7,9.6c4.3,0,7.4-2.5,8.7-5.9c0.5-1.2,0.8-2.5,0.8-3.8
			c0-1.3-0.2-2.7-0.8-3.9c-1.3-3.3-4.6-5.8-8.8-5.8C394.9,199.3,390.9,203.6,390.9,209L390.9,209z"/>
		<path class="st0" d="M421.7,199.5h-4.8v-2.6h4.8v-9.1h3.3v9.1h5.3v2.6h-5.3V221h-3.3V199.5z"/>
	</g>
	<g>
		<polygon class="st1" points="311.1,168.9 306.5,165 301,165 304.5,168.9 		"/>
		<polygon class="st1" points="301,168.9 297.8,165 293.7,165 291.3,168.9 		"/>
		<polygon class="st2" points="296.2,184.2 301,170 291.3,170 		"/>
		<polygon class="st1" points="292.3,165 286.9,165 282.3,168.9 288.9,168.9 		"/>
		<polygon class="st2" points="304.5,170 297.4,183.4 311.1,170 		"/>
		<polygon class="st2" points="287.9,170 281.3,170 295,183.4 		"/>
		<path class="st3" d="M313.1,192.1c-4.5-4.5-10.5-7-16.9-7c-6.4,0-12.4,2.5-16.9,7c-4.6,4.6-7.1,10.7-7.1,17.2
			c0,5.2,1.7,10.4,4.8,14.6c-0.6,1.6-1.6,2.8-2.8,3.7c-0.7,0.5-1,1.5-0.8,2.4c0.2,0.9,0.8,1.6,1.6,1.7c0.8,0.1,1.5,0.2,2.3,0.2
			c2.4,0,4.6-0.6,6.5-1.7c3.7,2.2,7.9,3.4,12.3,3.4c6.4,0,12.4-2.5,16.9-7c4.6-4.6,7.1-10.7,7.1-17.2
			C320.2,202.8,317.7,196.7,313.1,192.1z M296.2,230.5c-4.1,0-8.2-1.2-11.6-3.5c-0.4-0.3-0.9-0.3-1.3,0c-1.7,1.2-3.6,1.7-5.8,1.7
			c0,0-0.1,0-0.2,0c1.1-1.3,2-2.8,2.6-4.7c0.2-0.5,0.1-1.1-0.3-1.6c-3.1-3.8-4.7-8.4-4.7-13.2c0-11.7,9.6-21.2,21.3-21.2
			c11.7,0,21.3,9.5,21.3,21.2C317.5,221,308,230.5,296.2,230.5z"/>
		<g>
			<g>
				<circle class="st1" cx="287.9" cy="209.3" r="3.1"/>
				<circle class="st1" cx="296.3" cy="209.3" r="3.1"/>
				<circle class="st1" cx="304.6" cy="209.3" r="3.1"/>
			</g>
		</g>
	</g>
</g>
</svg>
